<svg version="1.1" id="Layer_1" xmlns="http://www.w3.org/2000/svg" xmlns:xlink="http://www.w3.org/1999/xlink" x="0px" y="0px"
	 width="100%" viewBox="0 0 4714 4838" enable-background="new 0 0 4714 4838" xml:space="preserve">
<path fill="#FDFEFE" opacity="1.000000" stroke="none" 
	d="
M4720.000000,1100.000000 
	C4720.000000,2349.333252 4720.000000,3596.666748 4720.000000,4844.000000 
	C3148.000000,4844.000000 1576.000000,4844.000000 4.000001,4844.000000 
	C4.000000,3230.666748 4.000000,1617.333374 4.000000,4.000001 
	C1576.000000,4.000001 3148.000000,4.000001 4720.000000,4.000000 
	C4720.000000,368.666656 4720.000000,733.333313 4720.000000,1100.000000 
M715.715637,4763.841797 
	C719.711670,4763.930176 723.707703,4764.096191 727.703735,4764.096191 
	C933.613037,4764.109863 1139.523682,4763.654297 1345.431274,4764.238770 
	C1551.962769,4764.825195 1758.487793,4763.583008 1965.031006,4765.668945 
	C2191.574707,4767.957520 2418.160889,4766.697754 2644.725830,4766.056641 
	C2871.254395,4765.415527 3097.776123,4766.974121 3324.316895,4764.632324 
	C3552.858398,4762.270020 3781.443604,4764.125488 4010.009521,4764.055664 
	C4018.624023,4764.052734 4027.238281,4763.236328 4038.489258,4762.483887 
	C4047.134277,4756.327148 4055.420654,4749.577637 4064.478027,4744.103027 
	C4190.500000,4667.931641 4316.684082,4592.028809 4442.705078,4515.856934 
	C4507.143555,4476.908203 4571.338379,4437.557129 4635.635742,4398.375977 
	C4639.616699,4395.950195 4643.660645,4393.598633 4647.453125,4390.899902 
	C4653.882812,4386.323730 4656.885254,4380.143066 4656.463867,4372.027344 
	C4655.946289,4362.052734 4655.874512,4352.043945 4655.925781,4342.051758 
	C4656.709961,4188.743164 4657.627441,4035.434814 4658.352051,3882.125732 
	C4659.750488,3586.165039 4661.109863,3290.204102 4662.371094,2994.242920 
	C4664.137207,2579.624512 4664.816406,2165.012695 4661.159180,1750.392822 
	C4658.495117,1448.443726 4658.104004,1146.474487 4656.821777,844.513733 
	C4656.362793,736.524963 4656.237305,628.534729 4656.020996,520.545044 
	C4655.981934,501.219330 4656.006348,481.887482 4656.463867,462.569397 
	C4656.674805,453.657074 4653.448730,447.098846 4646.023438,442.447540 
	C4643.765625,441.032898 4641.440918,439.724762 4639.161133,438.345123 
	C4575.306641,399.709473 4511.450684,361.076965 4447.603027,322.431061 
	C4321.048340,245.830353 4194.489746,169.237595 4067.972900,92.574783 
	C4061.162109,88.447937 4053.953125,84.503159 4048.314941,79.042953 
	C4041.919922,72.850365 4034.936035,70.892509 4026.604248,71.146133 
	C4020.610596,71.328598 4014.606689,71.172302 4008.607178,71.172287 
	C3448.010498,71.170822 2887.414062,71.169250 2326.817383,71.169029 
	C1794.866455,71.168816 1262.915649,71.188606 730.964722,71.066002 
	C717.352661,71.062866 704.389648,70.985748 694.764099,82.995087 
	C692.403381,85.940315 688.159668,87.393494 684.746460,89.474754 
	C671.092224,97.800674 657.441101,106.131828 643.758606,114.411118 
	C465.312927,222.388351 286.861877,330.356781 108.413864,438.330261 
	C105.564804,440.054138 102.651558,441.689850 99.917709,443.582550 
	C94.015823,447.668518 91.040787,453.342102 91.215012,460.578644 
	C91.423470,469.237274 91.848091,477.896118 91.826714,486.553986 
	C91.550293,598.529358 91.370377,710.505371 90.824005,822.479492 
	C90.528069,883.130981 89.273224,943.777832 88.980118,1004.429260 
	C87.762505,1256.385742 86.632843,1508.342896 85.689636,1760.300537 
	C84.831215,1989.610229 83.499641,2218.921875 83.756783,2448.231201 
	C84.043793,2704.183838 85.889145,2960.135010 87.051949,3216.086670 
	C88.375237,3507.365479 89.705627,3798.644287 91.004684,4089.923096 
	C91.272247,4149.916504 91.494804,4209.910645 91.585037,4269.904785 
	C91.636162,4303.897461 91.531853,4337.891602 91.167763,4371.881836 
	C91.048180,4383.045410 95.082382,4391.037109 105.225151,4396.127930 
	C112.358131,4399.708496 119.231667,4403.835449 126.073456,4407.962891 
	C303.515656,4514.999023 480.965363,4622.022949 658.320740,4729.202637 
	C674.791626,4739.156738 692.123596,4747.893066 706.523132,4761.057129 
	C707.835938,4762.257324 710.197693,4762.310547 715.715637,4763.841797 
z"/>
<path fill="#16E3FC" opacity="1.000000" stroke="none" 
	d="
M712.072205,4762.896484 
	C710.197693,4762.310547 707.835938,4762.257324 706.523132,4761.057129 
	C692.123596,4747.893066 674.791626,4739.156738 658.320740,4729.202637 
	C480.965363,4622.022949 303.515656,4514.999023 126.073456,4407.962891 
	C119.231667,4403.835449 112.358131,4399.708496 105.225151,4396.127930 
	C95.082382,4391.037109 91.048180,4383.045410 91.167763,4371.881836 
	C91.531853,4337.891602 91.636162,4303.897461 91.585037,4269.904785 
	C91.494804,4209.910645 91.272247,4149.916504 91.004684,4089.923096 
	C89.705627,3798.644287 88.375237,3507.365479 87.051949,3216.086670 
	C85.889145,2960.135010 84.043793,2704.183838 83.756783,2448.231201 
	C83.499641,2218.921875 84.831215,1989.610229 85.689636,1760.300537 
	C86.632843,1508.342896 87.762505,1256.385742 88.980118,1004.429260 
	C89.273224,943.777832 90.528069,883.130981 90.824005,822.479492 
	C91.370377,710.505371 91.550293,598.529358 91.826714,486.553986 
	C91.848091,477.896118 91.423470,469.237274 91.215012,460.578644 
	C91.040787,453.342102 94.015823,447.668518 99.917709,443.582550 
	C102.651558,441.689850 105.564804,440.054138 108.413864,438.330261 
	C286.861877,330.356781 465.312927,222.388351 643.758606,114.411118 
	C657.441101,106.131828 671.092224,97.800674 684.746460,89.474754 
	C688.159668,87.393494 692.403381,85.940315 694.764099,82.995087 
	C704.389648,70.985748 717.352661,71.062866 730.964722,71.066002 
	C1262.915649,71.188606 1794.866455,71.168816 2326.817383,71.169029 
	C2887.414062,71.169250 3448.010498,71.170822 4008.607178,71.172287 
	C4014.606689,71.172302 4020.610596,71.328598 4026.604248,71.146133 
	C4034.936035,70.892509 4041.919922,72.850365 4048.314941,79.042953 
	C4053.953125,84.503159 4061.162109,88.447937 4067.972900,92.574783 
	C4194.489746,169.237595 4321.048340,245.830353 4447.603027,322.431061 
	C4511.450684,361.076965 4575.306641,399.709473 4639.161133,438.345123 
	C4641.440918,439.724762 4643.765625,441.032898 4646.023438,442.447540 
	C4653.448730,447.098846 4656.674805,453.657074 4656.463867,462.569397 
	C4656.006348,481.887482 4655.981934,501.219330 4656.020996,520.545044 
	C4656.237305,628.534729 4656.362793,736.524963 4656.821777,844.513733 
	C4658.104004,1146.474487 4658.495117,1448.443726 4661.159180,1750.392822 
	C4664.816406,2165.012695 4664.137207,2579.624512 4662.371094,2994.242920 
	C4661.109863,3290.204102 4659.750488,3586.165039 4658.352051,3882.125732 
	C4657.627441,4035.434814 4656.709961,4188.743164 4655.925781,4342.051758 
	C4655.874512,4352.043945 4655.946289,4362.052734 4656.463867,4372.027344 
	C4656.885254,4380.143066 4653.882812,4386.323730 4647.453125,4390.899902 
	C4643.660645,4393.598633 4639.616699,4395.950195 4635.635742,4398.375977 
	C4571.338379,4437.557129 4507.143555,4476.908203 4442.705078,4515.856934 
	C4316.684082,4592.028809 4190.500000,4667.931641 4064.478027,4744.103027 
	C4055.420654,4749.577637 4047.134277,4756.327148 4035.813965,4761.735352 
	C4025.175781,4760.657715 4017.212891,4760.041504 4009.250000,4760.041016 
	C3537.934326,4760.008301 3066.618652,4760.038086 2595.302979,4760.036621 
	C1976.659668,4760.035156 1358.016235,4760.013184 739.372925,4760.000488 
	C733.373169,4760.000488 727.349670,4759.692383 721.383179,4760.139648 
	C718.228333,4760.376465 715.172668,4761.935547 712.072205,4762.896484 
M1839.999023,4468.000000 
	C1839.999023,4468.000000 1840.097412,4467.956055 1839.291748,4466.123535 
	C1838.209106,4465.383301 1837.126343,4464.643066 1835.998779,4464.000000 
	C1835.998779,4464.000000 1836.098145,4463.955566 1835.292480,4462.123047 
	C1834.209595,4461.382812 1833.126709,4460.642578 1832.000000,4460.000000 
	C1832.000000,4460.000000 1832.098389,4459.954590 1831.292236,4458.122559 
	C1830.209595,4457.382324 1829.126953,4456.642090 1827.999756,4456.000000 
	C1827.999756,4456.000000 1828.098145,4455.954590 1827.292236,4454.122070 
	C1826.209595,4453.382324 1825.126953,4452.642090 1823.999268,4452.000000 
	C1823.999268,4452.000000 1824.097778,4451.954590 1823.292358,4450.122559 
	C1822.209717,4449.382812 1821.126953,4448.643066 1819.999023,4448.000000 
	C1819.999023,4448.000000 1820.097412,4447.954590 1819.292725,4446.121582 
	C1818.209961,4445.381836 1817.127197,4444.642578 1815.999023,4444.000000 
	C1815.999023,4444.000000 1816.097412,4443.954590 1815.292603,4442.121582 
	C1814.209961,4441.381836 1813.127319,4440.642090 1811.998901,4440.000000 
	C1811.998901,4440.000000 1812.097656,4439.954102 1811.292847,4438.121094 
	C1810.210205,4437.381348 1809.127563,4436.641602 1807.999146,4436.000000 
	C1807.999146,4436.000000 1808.097900,4435.954102 1807.292847,4434.121094 
	C1806.210205,4433.381836 1805.127563,4432.642090 1803.999512,4432.000000 
	C1803.999512,4432.000000 1804.098022,4431.953613 1803.292969,4430.121094 
	C1802.210327,4429.381348 1801.127686,4428.642090 1799.999512,4428.000000 
	C1799.999512,4428.000000 1800.098022,4427.953613 1799.292725,4426.121094 
	C1798.210083,4425.381348 1797.127563,4424.642090 1795.999390,4424.000000 
	C1795.999390,4424.000000 1796.097900,4423.953613 1795.292480,4422.121094 
	C1794.209839,4421.381348 1793.127197,4420.642090 1791.999146,4420.000000 
	C1791.999146,4420.000000 1792.097778,4419.954102 1791.291870,4418.121582 
	C1790.209351,4417.381836 1789.126831,4416.642090 1787.998901,4416.000000 
	C1787.998901,4416.000000 1788.097656,4415.954590 1787.291992,4414.122559 
	C1786.209351,4413.382812 1785.126587,4412.643066 1783.999146,4412.000000 
	C1783.999146,4412.000000 1784.097656,4411.955078 1783.291748,4410.122559 
	C1782.208984,4409.382324 1781.126343,4408.642578 1779.997925,4408.000000 
	C1779.997925,4408.000000 1780.097656,4407.955566 1779.291870,4406.122559 
	C1778.209106,4405.382324 1777.126221,4404.642578 1775.998291,4404.000000 
	C1775.998291,4404.000000 1776.097778,4403.955566 1775.291504,4402.122559 
	C1774.208862,4401.382324 1773.126221,4400.642578 1771.999146,4400.000000 
	C1771.999146,4400.000000 1772.098267,4399.955566 1771.292236,4398.122559 
	C1770.209473,4397.382324 1769.126587,4396.642090 1767.999756,4396.000000 
	C1767.999756,4396.000000 1768.098755,4395.955078 1767.291382,4394.123047 
	C1766.208984,4393.382324 1765.126587,4392.641602 1763.999146,4392.000000 
	C1763.999146,4392.000000 1764.098999,4391.954590 1763.291748,4390.122559 
	C1762.209229,4389.382324 1761.126587,4388.642090 1759.999146,4388.000000 
	C1759.999146,4388.000000 1760.098999,4387.954590 1759.291992,4386.122559 
	C1758.209351,4385.382324 1757.126709,4384.642578 1756.000000,4384.000000 
	C1756.000000,4384.000000 1756.098511,4383.954590 1755.292114,4382.122070 
	C1754.209351,4381.382324 1753.126709,4380.642090 1751.998901,4380.000000 
	C1751.998901,4380.000000 1752.097900,4379.955078 1751.291992,4378.122559 
	C1750.209351,4377.382324 1749.126709,4376.642578 1747.999146,4376.000000 
	C1747.999146,4376.000000 1748.097656,4375.955078 1747.291992,4374.122559 
	C1746.209351,4373.382812 1745.126587,4372.642578 1743.999146,4372.000000 
	C1743.999146,4372.000000 1744.097656,4371.955078 1743.292236,4370.122559 
	C1742.209595,4369.382324 1741.126831,4368.642578 1739.999268,4368.000000 
	C1739.999268,4368.000000 1740.097778,4367.954590 1739.292358,4366.121582 
	C1738.209717,4365.381836 1737.127075,4364.642090 1735.999512,4364.000000 
	C1735.999512,4364.000000 1736.097900,4363.954102 1735.292603,4362.121582 
	C1734.209961,4361.381836 1733.127319,4360.642090 1731.999268,4360.000000 
	C1731.999268,4360.000000 1732.097900,4359.954102 1731.292603,4358.121582 
	C1730.209961,4357.381836 1729.127441,4356.642090 1727.999146,4356.000000 
	C1727.999146,4356.000000 1728.097900,4355.954102 1727.292725,4354.121094 
	C1726.209961,4353.381836 1725.127197,4352.642090 1723.999146,4352.000000 
	C1723.999146,4352.000000 1724.097778,4351.954102 1723.291870,4350.121582 
	C1722.209351,4349.381836 1721.126831,4348.642090 1719.999023,4348.000000 
	C1719.999023,4348.000000 1720.097778,4347.954590 1719.292114,4346.122070 
	C1718.209473,4345.382324 1717.126709,4344.642090 1715.998535,4344.000000 
	C1715.998535,4344.000000 1716.097778,4343.955078 1715.291626,4342.122559 
	C1714.208862,4341.382324 1713.126221,4340.642578 1711.998657,4340.000000 
	C1711.998657,4340.000000 1712.098022,4339.955566 1711.292236,4338.122559 
	C1710.209229,4337.382324 1709.126343,4336.642578 1707.999023,4336.000000 
	C1707.999023,4336.000000 1708.098145,4335.955566 1707.291992,4334.123535 
	C1706.209229,4333.383301 1705.126465,4332.642578 1703.998535,4332.000000 
	C1703.998535,4332.000000 1704.097900,4331.955566 1703.292236,4330.123047 
	C1702.209473,4329.382812 1701.126709,4328.643066 1699.998657,4328.000000 
	C1699.998657,4328.000000 1700.097412,4327.955078 1699.292114,4326.122559 
	C1698.209473,4325.382812 1697.126953,4324.643066 1695.996582,4324.000000 
	C1695.996582,4324.000000 1696.095703,4323.954590 1695.226807,4322.074707 
	C1694.070068,4321.364258 1692.913208,4320.653809 1689.241577,4319.897949 
	C1687.565430,4319.947266 1685.889404,4319.996582 1680.421753,4319.924316 
	C1646.952393,4319.853516 1613.483154,4319.782715 1577.601807,4317.406250 
	C1576.343140,4317.019531 1575.086182,4316.302246 1573.825439,4316.295410 
	C1547.375732,4316.158691 1520.922729,4315.888184 1494.477783,4316.219238 
	C1489.427002,4316.282715 1484.406616,4318.783691 1475.751709,4320.169434 
	C1285.154663,4320.169434 1094.557617,4320.181641 903.960632,4320.166504 
	C649.387207,4320.145996 394.813843,4320.103516 137.640625,4319.892578 
	C135.924072,4319.635742 134.207520,4319.378906 131.972504,4315.658691 
	C131.872345,4309.002930 131.438919,4302.329590 131.802841,4295.699219 
	C132.005951,4291.998535 133.534195,4288.371094 134.741043,4283.626465 
	C144.140213,4283.626465 152.736526,4283.625977 161.332825,4283.625977 
	C617.465881,4283.625977 1073.598877,4283.625977 1529.731934,4283.625977 
	C1583.002930,4283.625977 1636.276489,4283.901367 1689.542969,4283.408691 
	C1701.094482,4283.302246 1709.759888,4286.479492 1717.648804,4294.945801 
	C1726.200562,4304.124023 1736.055054,4312.087891 1747.106079,4322.030273 
	C1747.508911,4322.675781 1747.911743,4323.321289 1749.398315,4326.342773 
	C1762.314941,4338.791016 1775.231567,4351.239258 1788.159058,4363.840820 
	C1788.159058,4363.840820 1788.312134,4363.849609 1789.355225,4366.269043 
	C1826.833984,4403.969238 1864.297729,4441.684082 1901.836792,4479.323730 
	C1903.662109,4481.154297 1906.150757,4482.323242 1908.058228,4483.963379 
	C1908.058228,4483.963379 1908.156738,4483.661621 1910.302856,4486.290527 
	C1918.820190,4487.032715 1927.337524,4488.422363 1935.854980,4488.424316 
	C2388.933594,4488.529297 2842.012451,4488.517578 3295.091064,4488.515625 
	C3300.421143,4488.515625 3305.790039,4488.866211 3311.067139,4488.328613 
	C3314.175781,4488.011230 3317.138428,4486.262207 3321.895020,4483.050781 
	C3383.588867,4421.250488 3445.206543,4359.374023 3507.018311,4297.691406 
	C3528.474365,4276.280273 3520.161621,4280.287109 3548.386230,4280.281250 
	C3894.370361,4280.206055 4240.354492,4280.274902 4586.338379,4280.305664 
	C4592.337891,4280.306641 4598.351074,4280.530273 4604.332520,4280.201660 
	C4608.100586,4279.995117 4611.822754,4278.953125 4616.736328,4278.077148 
	C4616.736328,4270.634766 4616.705566,4264.035645 4616.740234,4257.437012 
	C4617.671875,4080.124512 4618.688965,3902.812500 4619.530273,3725.499512 
	C4620.938477,3428.862549 4622.781738,3132.226562 4623.426758,2835.587891 
	C4624.078613,2535.612549 4623.593262,2235.634277 4623.379883,1935.657471 
	C4623.333984,1871.000488 4622.096191,1806.345215 4621.795410,1741.687378 
	C4620.539062,1471.708496 4619.434570,1201.729004 4618.266602,931.749695 
	C4617.631836,785.091797 4616.988770,638.433838 4616.322754,491.776031 
	C4616.290039,484.504761 4616.007324,477.234650 4615.840332,469.937012 
	C4607.722656,464.913544 4600.411133,460.301453 4593.016602,455.826233 
	C4410.021484,345.071625 4227.021484,234.325607 4044.010986,123.596382 
	C4020.803467,109.554863 4020.774658,109.600533 3993.570801,109.600517 
	C3439.598145,109.600166 2885.625244,109.600929 2331.652588,109.600060 
	C1803.676758,109.599228 1275.700806,109.637283 747.725037,109.383095 
	C733.137939,109.376076 720.791443,112.740547 708.293213,120.331200 
	C529.454529,228.946411 350.370453,337.157501 171.408432,445.569763 
	C157.787231,453.821320 144.641052,462.857025 129.114227,474.172668 
	C128.708435,482.119080 127.955376,490.065155 127.948608,498.011902 
	C127.836151,629.950928 127.831848,761.889954 127.734856,893.828918 
	C127.729980,900.468628 127.234947,907.117737 126.734062,913.744751 
	C126.135094,921.669373 124.509842,929.594604 124.709938,937.484497 
	C125.079887,952.071594 127.156242,966.627258 127.281212,981.206543 
	C127.669594,1026.516602 127.514091,1071.831665 127.451706,1117.144653 
	C127.445343,1121.768555 126.637733,1126.390869 126.212891,1131.014893 
	C125.546021,1138.272949 124.333298,1145.530273 124.312012,1152.790649 
	C124.073677,1234.084839 123.977234,1315.379395 123.925591,1396.673950 
	C123.844742,1523.948486 123.844810,1651.222900 123.735046,1778.497437 
	C123.729324,1785.128174 123.126228,1791.766968 122.606651,1798.386719 
	C122.036690,1805.648438 120.487190,1812.914551 120.697739,1820.139771 
	C121.161667,1836.059326 123.145721,1851.947876 123.293457,1867.860474 
	C123.701775,1911.837280 123.522095,1955.819946 123.474792,1999.800293 
	C123.468376,2005.771118 123.027138,2011.752686 122.541771,2017.709229 
	C121.897034,2025.621704 120.360954,2033.512085 120.330170,2041.416260 
	C120.047318,2114.047119 119.899330,2186.678711 119.918030,2259.310059 
	C119.963661,2436.561523 120.117958,2613.812744 120.237442,2791.064209 
	C120.240585,2795.727295 119.412636,2800.637451 120.569595,2805.009766 
	C125.089806,2822.092041 123.315651,2839.437012 123.424332,2856.679199 
	C123.638527,2890.662598 123.568756,2924.648926 123.339264,2958.632568 
	C123.285675,2966.568359 121.748726,2974.487793 121.553185,2982.430908 
	C121.176895,2997.716064 120.957848,3013.019531 121.293411,3028.302002 
	C121.481796,3036.881104 123.641945,3045.431152 123.666908,3053.997803 
	C123.923172,3141.955811 123.932220,3229.914307 123.993988,3317.872803 
	C124.078217,3437.816650 124.143524,3557.760742 124.240280,3677.704590 
	C124.244576,3683.030518 123.469193,3688.625977 124.804039,3693.629883 
	C128.311142,3706.776367 127.442886,3720.066406 127.466270,3733.340088 
	C127.532005,3770.656738 127.576797,3807.974121 127.328873,3845.289307 
	C127.271767,3853.884766 125.604164,3862.462646 125.394783,3871.065674 
	C125.055260,3885.017578 125.011490,3898.992676 125.416046,3912.941406 
	C125.684464,3922.195557 127.647888,3931.419434 127.667252,3940.659424 
	C127.894897,4049.275146 127.898933,4157.891602 127.960014,4266.507812 
	C127.975006,4293.158203 127.900795,4319.809082 128.058884,4346.458496 
	C128.093414,4352.279297 126.467369,4358.589844 132.653564,4366.058594 
	C134.642548,4367.782715 136.426086,4369.851074 138.652008,4371.177734 
	C162.505447,4385.389648 186.522141,4399.329590 210.312378,4413.645508 
	C251.077194,4438.175781 291.712219,4462.921875 334.952087,4488.794922 
	C362.138702,4488.523438 389.325256,4488.018555 416.511902,4488.015137 
	C808.238586,4487.963867 1199.965210,4487.984863 1591.691895,4487.969238 
	C1613.008911,4487.968262 1634.326050,4487.804688 1659.412720,4487.919434 
	C1677.252930,4488.053711 1695.093140,4488.187500 1711.248779,4488.309082 
	C1719.167725,4496.602539 1725.448120,4503.435059 1731.997070,4509.998535 
	C1797.667236,4575.818848 1863.408325,4641.568359 1929.032715,4707.434082 
	C1934.121582,4712.541992 1938.481567,4718.375488 1939.653809,4724.185547 
	C1922.541260,4723.773926 1905.428589,4723.362305 1886.873901,4720.796387 
	C1828.004272,4661.897949 1769.220825,4602.913086 1710.217407,4544.148926 
	C1689.819946,4523.834473 1698.581787,4527.314941 1668.663574,4527.308594 
	C1256.937744,4527.219238 845.211853,4527.249512 433.485962,4527.254883 
	C427.490295,4527.255371 421.492004,4527.207520 415.500183,4527.372070 
	C413.048767,4527.439453 410.052277,4526.937012 409.000397,4531.849121 
	C414.250397,4536.884766 421.345673,4540.386230 427.989075,4544.416992 
	C484.359589,4578.613770 540.743469,4612.789551 597.189941,4646.860840 
	C640.517517,4673.014648 683.941406,4699.008789 730.141418,4727.028809 
	C738.104248,4727.375488 746.067139,4728.027344 754.029907,4728.025879 
	C1214.638794,4727.952148 1675.247559,4727.825195 2135.856445,4727.701172 
	C2203.848389,4727.682617 2271.840332,4727.713867 2339.831787,4727.525879 
	C2346.276611,4727.508301 2353.228760,4729.729004 2362.711914,4724.494141 
	C2371.156982,4724.476074 2379.602051,4724.458008 2390.477783,4726.640625 
	C2397.749756,4727.059082 2405.021729,4727.840820 2412.293945,4727.843750 
	C2734.673096,4727.957031 3057.052246,4728.014648 3379.431396,4728.051270 
	C3584.582275,4728.074219 3789.732910,4728.054688 3994.883789,4728.053223 
	C4000.212402,4728.053223 4005.566895,4728.354980 4010.859863,4727.917969 
	C4014.036133,4727.655273 4017.116211,4726.229980 4022.689941,4723.953125 
	C4089.938965,4683.302246 4157.198242,4642.668457 4224.433105,4601.995117 
	C4260.330078,4580.279297 4296.213867,4558.540039 4332.011230,4536.662109 
	C4334.948242,4534.867188 4340.251465,4533.929199 4337.291504,4527.249512 
	C4330.384766,4527.249512 4323.086426,4527.249512 4315.788086,4527.249512 
	C4065.302246,4527.249512 3814.816406,4527.249512 3564.330566,4527.249023 
	C3560.333496,4527.249023 3556.327637,4527.422852 3552.341064,4527.218750 
	C3545.976807,4526.894043 3540.601562,4528.624512 3536.345703,4533.605469 
	C3534.189453,4536.129395 3531.671631,4538.345215 3529.317139,4540.699219 
	C3472.787598,4597.224609 3416.244873,4653.737305 3359.753662,4710.300781 
	C3355.540527,4714.519043 3351.692139,4719.102051 3344.031982,4723.871094 
	C3326.907715,4723.764648 3309.783203,4723.658203 3293.722900,4721.232910 
	C3296.885742,4717.832520 3299.946045,4714.330078 3303.225830,4711.046387 
	C3365.208740,4648.995605 3427.217041,4586.970703 3489.222168,4524.941895 
	C3498.146973,4516.013672 3507.444092,4507.422852 3515.897949,4498.069336 
	C3522.667236,4490.579590 3530.215820,4487.234863 3540.415771,4487.694336 
	C3555.001953,4488.352051 3569.641846,4487.811523 3587.954346,4487.930664 
	C3852.008057,4487.947266 4116.061523,4487.961914 4380.115234,4487.987793 
	C4388.761230,4487.988770 4397.431641,4488.504883 4406.041016,4487.975098 
	C4409.679688,4487.750977 4413.189453,4485.436523 4419.546875,4483.819336 
	C4426.640625,4480.200195 4433.981934,4476.992676 4440.787598,4472.895508 
	C4482.908203,4447.541016 4524.953125,4422.058105 4566.926270,4396.459473 
	C4582.243652,4387.117676 4597.414062,4377.519531 4612.371094,4367.615723 
	C4615.414551,4365.601074 4619.072754,4361.782227 4619.233887,4358.630371 
	C4619.864258,4346.281738 4621.912109,4333.641602 4616.956055,4320.341309 
	C4608.628418,4320.207031 4600.735840,4319.969727 4592.843262,4319.969727 
	C4319.692871,4319.972168 4046.542725,4320.007324 3773.392334,4319.975098 
	C3764.136963,4319.974121 3754.976074,4318.924316 3745.732910,4317.786133 
	C3730.063232,4315.855957 3713.972168,4316.995117 3698.073486,4317.418457 
	C3690.187012,4317.627441 3682.339355,4319.844238 3674.465820,4319.895508 
	C3635.826904,4320.147461 3597.185059,4319.974121 3558.544434,4319.958496 
	C3553.881104,4319.956543 3549.114990,4319.409180 3544.586670,4320.202148 
	C3540.902588,4320.846680 3536.700684,4322.291016 3534.104980,4324.803223 
	C3513.139648,4345.090820 3492.478271,4365.693359 3471.773438,4386.249023 
	C3463.795654,4394.168945 3455.901855,4402.175293 3448.042969,4410.213867 
	C3426.669678,4432.077148 3405.335449,4453.978516 3382.201904,4476.633301 
	C3381.058594,4477.361816 3380.294922,4478.375977 3379.760498,4479.765625 
	C3379.760498,4479.765625 3379.663574,4479.911133 3378.032227,4480.694824 
	C3377.011230,4481.421875 3376.312500,4482.382812 3375.706055,4483.706055 
	C3375.706055,4483.706055 3375.574951,4483.934082 3373.965576,4484.734863 
	C3372.962646,4485.473633 3372.280273,4486.439453 3371.728027,4487.724609 
	C3371.728027,4487.724609 3371.635254,4487.915039 3369.976807,4488.710938 
	C3368.942871,4489.462891 3368.252930,4490.454590 3367.780273,4491.780762 
	C3367.780273,4491.780762 3367.684326,4491.906738 3366.003906,4492.698242 
	C3364.953857,4493.450684 3364.254639,4494.448730 3363.787842,4495.789551 
	C3363.787842,4495.789551 3363.690186,4495.906250 3361.999512,4496.702148 
	C3360.944580,4497.463379 3360.245850,4498.471680 3359.842529,4499.842773 
	C3359.842529,4499.842773 3359.725586,4499.902344 3358.007812,4500.689453 
	C3356.934326,4501.455078 3356.232666,4502.476074 3355.880371,4503.881836 
	C3355.880371,4503.881836 3355.750732,4503.902344 3354.024414,4504.680664 
	C3352.946045,4505.443848 3352.239014,4506.463867 3351.864258,4507.865723 
	C3351.864258,4507.865723 3351.739746,4507.902344 3350.021973,4508.683594 
	C3348.948730,4509.445312 3348.242676,4510.461426 3347.851807,4511.851562 
	C3347.851807,4511.851562 3347.731689,4511.902344 3346.021484,4512.681641 
	C3344.952148,4513.437988 3344.246338,4514.448730 3343.816650,4515.818848 
	C3343.816650,4515.818848 3343.709717,4515.905273 3342.015869,4516.689453 
	C3340.958252,4517.442871 3340.255127,4518.445312 3339.792236,4519.793457 
	C3339.792236,4519.793457 3339.694580,4519.907227 3337.992432,4520.711426 
	C3336.930908,4521.481934 3336.233398,4522.501953 3335.955322,4523.957520 
	C3335.955322,4523.957520 3335.801270,4523.838379 3332.106934,4523.910645 
	C3313.435547,4524.048828 3294.764160,4524.187012 3272.347412,4524.227539 
	C3252.200439,4524.256348 3232.053711,4524.285156 3208.184326,4524.118652 
	C3204.190430,4524.086426 3200.196289,4524.025879 3196.202393,4524.025879 
	C2811.424316,4524.021484 2426.646484,4524.019043 2041.868530,4524.031250 
	C2035.878906,4524.031250 2029.889404,4524.200684 2020.168945,4524.226562 
	C1997.384033,4524.333496 1974.599243,4524.440430 1948.149048,4524.246582 
	C1930.756592,4524.205566 1913.364136,4524.164551 1894.763428,4521.756348 
	C1884.442993,4511.854004 1874.122681,4501.952148 1863.004639,4490.299316 
	C1862.231201,4489.220215 1861.219849,4488.456055 1859.255005,4486.262207 
	C1858.556641,4485.148926 1857.584106,4484.384766 1855.367188,4482.165527 
	C1854.256592,4481.412598 1853.145874,4480.660156 1851.999146,4480.000000 
	C1851.999146,4480.000000 1852.093384,4479.962402 1851.285156,4478.130859 
	C1850.203125,4477.389160 1849.121094,4476.647949 1847.999634,4476.000000 
	C1847.999634,4476.000000 1848.094604,4475.959473 1847.288696,4474.126465 
	C1846.206299,4473.385742 1845.123901,4472.645020 1843.997437,4472.000000 
	C1843.997437,4472.000000 1844.095825,4471.957520 1843.290039,4470.125000 
	C1842.207642,4469.384277 1841.125244,4468.643555 1839.999023,4468.000000 
M3686.000000,107.999214 
	C3708.000244,107.999008 3730.000244,107.998589 3752.000488,107.998650 
	C3835.333252,107.998886 3918.666260,107.999489 4001.999023,107.998657 
	C4004.665771,107.998634 4007.350830,108.172447 4009.992432,107.910744 
	C4011.746582,107.736931 4013.437988,106.930939 4015.157471,106.407936 
	C4015.009521,105.607834 4014.861816,104.807732 4014.713867,104.007629 
	C4009.473633,104.007629 4004.233154,104.007324 3998.992920,104.007668 
	C2909.667969,104.078911 1820.342896,104.150047 731.017883,104.257980 
	C730.445312,104.258034 729.818787,104.744377 729.318420,105.133446 
	C728.959595,105.412422 728.769531,105.908531 728.504211,106.307793 
	C729.037842,106.707329 729.571472,107.457001 730.105225,107.457115 
	C1714.070190,107.670799 2698.035156,107.834831 3686.000000,107.999214 
z"/>
<path fill="#23D2E5" opacity="1.000000" stroke="none" 
	d="
M713.893921,4763.369141 
	C715.172668,4761.935547 718.228333,4760.376465 721.383179,4760.139648 
	C727.349670,4759.692383 733.373169,4760.000488 739.372925,4760.000488 
	C1358.016235,4760.013184 1976.659668,4760.035156 2595.302979,4760.036621 
	C3066.618652,4760.038086 3537.934326,4760.008301 4009.250000,4760.041016 
	C4017.212891,4760.041504 4025.175781,4760.657715 4034.495605,4761.892578 
	C4027.238281,4763.236328 4018.624023,4764.052734 4010.009521,4764.055664 
	C3781.443604,4764.125488 3552.858398,4762.270020 3324.316895,4764.632324 
	C3097.776123,4766.974121 2871.254395,4765.415527 2644.725830,4766.056641 
	C2418.160889,4766.697754 2191.574707,4767.957520 1965.031006,4765.668945 
	C1758.487793,4763.583008 1551.962769,4764.825195 1345.431274,4764.238770 
	C1139.523682,4763.654297 933.613037,4764.109863 727.703735,4764.096191 
	C723.707703,4764.096191 719.711670,4763.930176 713.893921,4763.369141 
z"/>
<path fill="#FFFFFF" opacity="1.000000" stroke="none" 
	d="
M131.274063,471.528198 
	C144.641052,462.857025 157.787231,453.821320 171.408432,445.569763 
	C350.370453,337.157501 529.454529,228.946411 708.293213,120.331200 
	C720.791443,112.740547 733.137939,109.376076 747.725037,109.383095 
	C1275.700806,109.637283 1803.676758,109.599228 2331.652588,109.600060 
	C2885.625244,109.600929 3439.598145,109.600166 3993.570801,109.600517 
	C4020.774658,109.600533 4020.803467,109.554863 4044.010986,123.596382 
	C4227.021484,234.325607 4410.021484,345.071625 4593.016602,455.826233 
	C4600.411133,460.301453 4607.722656,464.913544 4615.840332,469.937012 
	C4616.007324,477.234650 4616.290039,484.504761 4616.322754,491.776031 
	C4616.988770,638.433838 4617.631836,785.091797 4618.266602,931.749695 
	C4619.434570,1201.729004 4620.539062,1471.708496 4621.795410,1741.687378 
	C4622.096191,1806.345215 4623.333984,1871.000488 4623.379883,1935.657471 
	C4623.593262,2235.634277 4624.078613,2535.612549 4623.426758,2835.587891 
	C4622.781738,3132.226562 4620.938477,3428.862549 4619.530273,3725.499512 
	C4618.688965,3902.812500 4617.671875,4080.124512 4616.740234,4257.437012 
	C4616.705566,4264.035645 4616.736328,4270.634766 4616.736328,4278.077148 
	C4611.822754,4278.953125 4608.100586,4279.995117 4604.332520,4280.201660 
	C4598.351074,4280.530273 4592.337891,4280.306641 4586.338379,4280.305664 
	C4240.354492,4280.274902 3894.370361,4280.206055 3548.386230,4280.281250 
	C3520.161621,4280.287109 3528.474365,4276.280273 3507.018311,4297.691406 
	C3445.206543,4359.374023 3383.588867,4421.250488 3319.150391,4484.261719 
	C3308.421387,4485.640137 3300.436768,4485.951660 3292.452393,4485.952637 
	C3054.699951,4485.978516 2816.947754,4485.974121 2579.195312,4485.974121 
	C2364.751953,4485.974121 2150.308594,4486.002930 1935.865356,4485.876465 
	C1926.628784,4485.870605 1917.392944,4484.432617 1908.156738,4483.661621 
	C1908.156738,4483.661621 1908.058228,4483.963379 1907.768066,4482.613281 
	C1905.770508,4479.228516 1904.203735,4477.053711 1902.334351,4475.179688 
	C1868.030762,4440.797852 1833.728394,4406.413574 1799.298096,4372.158691 
	C1796.073120,4368.950195 1791.994385,4366.599121 1788.312012,4363.849609 
	C1788.312134,4363.849609 1788.159058,4363.840820 1787.715088,4362.530273 
	C1774.935303,4348.123047 1763.486938,4334.098145 1748.314575,4323.967285 
	C1747.911743,4323.321289 1747.508911,4322.675781 1745.945435,4320.115723 
	C1738.344971,4311.467285 1732.084717,4304.550781 1725.432373,4298.033691 
	C1703.320557,4276.371094 1711.471558,4278.919434 1678.543945,4278.916016 
	C1173.988525,4278.863281 669.433228,4278.879395 164.877823,4278.877441 
	C158.212692,4278.877441 151.539764,4279.046387 144.885468,4278.772461 
	C141.100220,4278.616699 137.345444,4277.721191 132.363617,4276.978027 
	C132.074921,4268.918457 131.614731,4261.694824 131.590302,4254.470703 
	C131.439301,4209.814941 131.531754,4165.158203 131.275085,4120.503418 
	C130.298264,3950.552490 129.047577,3780.603027 128.236130,3610.651367 
	C127.653763,3488.682373 127.845963,3366.709473 127.264412,3244.740479 
	C126.454079,3074.788574 125.097740,2904.839355 124.256828,2734.887451 
	C123.709396,2624.249023 123.289124,2513.607422 123.491402,2402.968506 
	C123.718040,2279.005371 124.800255,2155.043945 125.348709,2031.081055 
	C126.047569,1873.120361 126.511948,1715.158447 127.214340,1557.197754 
	C127.771484,1431.901855 128.636459,1306.607300 129.184189,1181.311279 
	C130.189362,951.366882 131.068115,721.421936 131.955627,491.477081 
	C131.981293,484.828430 131.512375,478.177856 131.274063,471.528198 
z"/>
<path fill="#01BCD3" opacity="1.000000" stroke="none" 
	d="
M1951.814331,4524.546875 
	C1974.599243,4524.440430 1997.384033,4524.333496 2023.253174,4525.397461 
	C2033.589966,4527.061035 2040.842285,4527.985352 2048.094971,4527.986328 
	C2427.747070,4528.056641 2807.399414,4528.048340 3187.051514,4528.047852 
	C3192.379883,4528.047852 3197.755859,4528.443359 3203.018555,4527.847656 
	C3206.075195,4527.501465 3208.949951,4525.545410 3211.906738,4524.313965 
	C3232.053711,4524.285156 3252.200439,4524.256348 3275.407227,4525.404297 
	C3295.436523,4526.990234 3312.405273,4527.544434 3329.375977,4527.626953 
	C3331.511475,4527.637207 3333.659180,4525.162109 3335.801270,4523.837891 
	C3335.801270,4523.838379 3335.955322,4523.957520 3336.801270,4523.489258 
	C3338.745361,4522.256348 3339.427734,4521.218262 3339.694580,4519.907227 
	C3339.694580,4519.907227 3339.792236,4519.793457 3340.725586,4519.391602 
	C3342.755859,4518.236816 3343.439453,4517.208496 3343.709717,4515.905273 
	C3343.709717,4515.905273 3343.816650,4515.818848 3344.745605,4515.416016 
	C3346.782715,4514.255859 3347.468506,4513.218750 3347.731689,4511.902344 
	C3347.731689,4511.902344 3347.851807,4511.851562 3348.763672,4511.436523 
	C3350.785400,4510.261230 3351.473389,4509.221191 3351.739746,4507.902344 
	C3351.739746,4507.902344 3351.864258,4507.865723 3352.772461,4507.448242 
	C3354.794678,4506.268066 3355.484863,4505.225586 3355.750732,4503.902344 
	C3355.750732,4503.902344 3355.880371,4503.881836 3356.778564,4503.459473 
	C3358.791992,4502.274902 3359.474854,4501.229980 3359.725586,4499.902344 
	C3359.725586,4499.902344 3359.842529,4499.842773 3360.747559,4499.423340 
	C3362.750000,4498.246582 3363.429443,4497.214355 3363.690186,4495.906250 
	C3363.690186,4495.906250 3363.787842,4495.789551 3364.720947,4495.389648 
	C3366.750000,4494.238281 3367.426758,4493.210449 3367.684326,4491.906738 
	C3367.684326,4491.906738 3367.780273,4491.780762 3368.712158,4491.384766 
	C3370.737793,4490.242676 3371.401611,4489.217773 3371.635254,4487.915039 
	C3371.635254,4487.915039 3371.728027,4487.724609 3372.672852,4487.333008 
	C3374.686523,4486.210938 3375.339111,4485.208008 3375.574951,4483.934082 
	C3375.574951,4483.934082 3375.706055,4483.706055 3376.677246,4483.307617 
	C3378.716553,4482.176758 3379.388184,4481.177246 3379.663574,4479.911133 
	C3379.663574,4479.911133 3379.760498,4479.765625 3380.747559,4479.375000 
	C3382.858887,4478.214355 3383.609131,4477.174316 3383.985840,4475.864746 
	C3405.335449,4453.978516 3426.669678,4432.077148 3448.042969,4410.213867 
	C3455.901855,4402.175293 3463.795654,4394.168945 3471.773438,4386.249023 
	C3492.478271,4365.693359 3513.139648,4345.090820 3534.104980,4324.803223 
	C3536.700684,4322.291016 3540.902588,4320.846680 3544.586670,4320.202148 
	C3549.114990,4319.409180 3553.881104,4319.956543 3558.544434,4319.958496 
	C3597.185059,4319.974121 3635.826904,4320.147461 3674.465820,4319.895508 
	C3682.339355,4319.844238 3690.187012,4317.627441 3698.073486,4317.418457 
	C3713.972168,4316.995117 3730.063232,4315.855957 3745.732910,4317.786133 
	C3754.976074,4318.924316 3764.136963,4319.974121 3773.392334,4319.975098 
	C4046.542725,4320.007324 4319.692871,4319.972168 4592.843262,4319.969727 
	C4600.735840,4319.969727 4608.628418,4320.207031 4616.956055,4320.341309 
	C4621.912109,4333.641602 4619.864258,4346.281738 4619.233887,4358.630371 
	C4619.072754,4361.782227 4615.414551,4365.601074 4612.371094,4367.615723 
	C4597.414062,4377.519531 4582.243652,4387.117676 4566.926270,4396.459473 
	C4524.953125,4422.058105 4482.908203,4447.541016 4440.787598,4472.895508 
	C4433.981934,4476.992676 4426.640625,4480.200195 4416.195801,4483.917969 
	C4144.244629,4484.010742 3875.644287,4484.004395 3607.043945,4484.007324 
	C3601.713867,4484.007324 3596.345459,4483.765137 3591.070801,4484.336426 
	C3588.703369,4484.592285 3586.523682,4486.580566 3584.258789,4487.782715 
	C3569.641846,4487.811523 3555.001953,4488.352051 3540.415771,4487.694336 
	C3530.215820,4487.234863 3522.667236,4490.579590 3515.897949,4498.069336 
	C3507.444092,4507.422852 3498.146973,4516.013672 3489.222168,4524.941895 
	C3427.217041,4586.970703 3365.208740,4648.995605 3303.225830,4711.046387 
	C3299.946045,4714.330078 3296.885742,4717.832520 3291.253418,4722.590332 
	C3280.796875,4724.030273 3272.809814,4724.184570 3264.822510,4724.185059 
	C2981.217285,4724.197266 2697.611816,4724.192871 2414.006592,4724.206055 
	C2405.353516,4724.206543 2396.700195,4724.358887 2388.047119,4724.440430 
	C2379.602051,4724.458008 2371.156982,4724.476074 2359.145996,4724.577148 
	C2226.738037,4724.631348 2097.896240,4724.616211 1969.054199,4724.543457 
	C1960.429443,4724.539062 1951.805054,4724.105469 1943.180420,4723.871582 
	C1938.481567,4718.375488 1934.121582,4712.541992 1929.032715,4707.434082 
	C1863.408325,4641.568359 1797.667236,4575.818848 1731.997070,4509.998535 
	C1725.448120,4503.435059 1719.167725,4496.602539 1711.248779,4488.309082 
	C1695.093140,4488.187500 1677.252930,4488.053711 1656.385010,4486.664551 
	C1646.102905,4484.945801 1638.848755,4484.077148 1631.594238,4484.076172 
	C1206.155029,4484.005371 780.715942,4484.005859 355.276764,4484.007324 
	C349.951996,4484.007324 344.592773,4483.776367 339.318146,4484.318359 
	C336.926239,4484.563965 334.702057,4486.440918 332.401794,4487.577637 
	C291.712219,4462.921875 251.077194,4438.175781 210.312378,4413.645508 
	C186.522141,4399.329590 162.505447,4385.389648 138.652008,4371.177734 
	C136.426086,4369.851074 134.642548,4367.782715 132.111969,4363.007812 
	C131.877228,4346.345703 132.184113,4332.733398 132.490967,4319.121582 
	C134.207520,4319.378906 135.924072,4319.635742 140.159393,4321.052734 
	C150.613831,4322.659668 158.549423,4323.495605 166.485138,4323.496582 
	C595.789490,4323.558105 1025.093872,4323.550293 1454.398315,4323.543945 
	C1460.396973,4323.543945 1466.420044,4323.772461 1472.381958,4323.285156 
	C1474.781128,4323.089355 1477.046021,4321.250488 1479.372192,4320.159668 
	C1484.406616,4318.783691 1489.427002,4316.282715 1494.477783,4316.219238 
	C1520.922729,4315.888184 1547.375732,4316.158691 1573.825439,4316.295410 
	C1575.086182,4316.302246 1576.343140,4317.019531 1579.933228,4319.819336 
	C1583.494995,4322.703613 1584.723145,4323.580566 1585.955933,4323.587402 
	C1615.783936,4323.750488 1645.613281,4323.928711 1675.439941,4323.737793 
	C1678.372192,4323.718750 1681.289185,4321.333008 1684.213257,4320.045898 
	C1685.889404,4319.996582 1687.565430,4319.947266 1690.981445,4320.828125 
	C1693.846191,4322.490234 1694.970947,4323.222168 1696.095703,4323.954590 
	C1696.095703,4323.954590 1695.996582,4324.000000 1696.408203,4324.879883 
	C1697.912231,4326.492188 1699.004761,4327.223633 1700.097412,4327.955078 
	C1700.097412,4327.955078 1699.998657,4328.000000 1700.409668,4328.879883 
	C1701.913086,4330.491211 1703.005493,4331.223633 1704.097900,4331.955566 
	C1704.097900,4331.955566 1703.998535,4332.000000 1704.409424,4332.879883 
	C1705.912964,4334.491699 1707.005493,4335.223633 1708.098145,4335.955566 
	C1708.098145,4335.955566 1707.999023,4336.000000 1708.409912,4336.879395 
	C1709.913208,4338.491211 1711.005615,4339.223145 1712.098022,4339.955566 
	C1712.098022,4339.955566 1711.998657,4340.000000 1712.409424,4340.879395 
	C1713.912720,4342.490723 1715.005249,4343.223145 1716.097778,4343.955078 
	C1716.097778,4343.955078 1715.998535,4344.000000 1716.409180,4344.879883 
	C1717.912598,4346.491211 1719.005127,4347.223145 1720.097656,4347.954590 
	C1720.097778,4347.954590 1719.999023,4348.000000 1720.409546,4348.879883 
	C1721.912720,4350.490723 1723.005249,4351.222168 1724.097778,4351.954102 
	C1724.097778,4351.954102 1723.999146,4352.000000 1724.409912,4352.879883 
	C1725.913086,4354.490723 1727.005493,4355.222168 1728.097900,4355.954102 
	C1728.097900,4355.954102 1727.999146,4356.000000 1728.409790,4356.879883 
	C1729.912842,4358.490723 1731.005371,4359.222656 1732.097900,4359.954102 
	C1732.097900,4359.954102 1731.999268,4360.000000 1732.409912,4360.879883 
	C1733.913086,4362.490723 1735.005493,4363.222168 1736.097900,4363.954102 
	C1736.097900,4363.954102 1735.999512,4364.000000 1736.409668,4364.879883 
	C1737.912476,4366.491211 1739.005127,4367.223145 1740.097656,4367.954590 
	C1740.097778,4367.954590 1739.999268,4368.000000 1740.409668,4368.879883 
	C1741.912476,4370.491211 1743.005005,4371.223145 1744.097656,4371.955078 
	C1744.097656,4371.955078 1743.999146,4372.000000 1744.409668,4372.879883 
	C1745.912598,4374.491211 1747.005127,4375.223145 1748.097656,4375.955078 
	C1748.097656,4375.955078 1747.999146,4376.000000 1748.409668,4376.879883 
	C1749.912842,4378.491211 1751.005371,4379.223145 1752.097900,4379.955078 
	C1752.097900,4379.955078 1751.998901,4380.000000 1752.409668,4380.879883 
	C1753.913086,4382.491211 1755.005737,4383.222656 1756.098511,4383.954590 
	C1756.098511,4383.954590 1756.000000,4384.000000 1756.410522,4384.879395 
	C1757.913696,4386.490723 1759.006348,4387.222656 1760.099121,4387.954590 
	C1760.098999,4387.954590 1759.999146,4388.000000 1760.410034,4388.878906 
	C1761.913574,4390.490234 1763.006226,4391.222168 1764.098999,4391.954590 
	C1764.098999,4391.954590 1763.999146,4392.000000 1764.410034,4392.878906 
	C1765.913574,4394.490723 1767.006104,4395.223145 1768.098633,4395.955078 
	C1768.098755,4395.955078 1767.999756,4396.000000 1768.410400,4396.878906 
	C1769.913330,4398.490723 1771.005859,4399.223145 1772.098267,4399.955566 
	C1772.098267,4399.955566 1771.999146,4400.000000 1772.409668,4400.879395 
	C1773.912720,4402.491211 1775.005249,4403.223145 1776.097778,4403.955566 
	C1776.097778,4403.955566 1775.998291,4404.000000 1776.409302,4404.879883 
	C1777.912720,4406.491211 1779.005127,4407.223633 1780.097656,4407.955566 
	C1780.097656,4407.955566 1779.997925,4408.000000 1780.408936,4408.879395 
	C1781.912476,4410.491211 1783.005005,4411.223145 1784.097656,4411.955078 
	C1784.097656,4411.955078 1783.999146,4412.000000 1784.409424,4412.879883 
	C1785.912476,4414.491211 1787.005005,4415.222656 1788.097656,4415.954590 
	C1788.097656,4415.954590 1787.998901,4416.000000 1788.409424,4416.879883 
	C1789.912598,4418.490723 1791.005249,4419.222656 1792.097778,4419.954102 
	C1792.097778,4419.954102 1791.999146,4420.000000 1792.409546,4420.879883 
	C1793.912598,4422.490723 1795.005249,4423.222168 1796.097900,4423.953613 
	C1796.097900,4423.953613 1795.999390,4424.000000 1796.409912,4424.879883 
	C1797.912964,4426.490723 1799.005493,4427.222168 1800.098022,4427.953613 
	C1800.098022,4427.953613 1799.999512,4428.000000 1800.410156,4428.879883 
	C1801.913208,4430.490723 1803.005615,4431.222168 1804.098022,4431.953613 
	C1804.098022,4431.953613 1803.999512,4432.000000 1804.410034,4432.879883 
	C1805.912964,4434.490723 1807.005371,4435.222656 1808.097900,4435.954102 
	C1808.097900,4435.954102 1807.999146,4436.000000 1808.409668,4436.879883 
	C1809.912720,4438.490723 1811.005127,4439.222656 1812.097656,4439.954102 
	C1812.097656,4439.954102 1811.998901,4440.000000 1812.409668,4440.879883 
	C1813.912720,4442.491211 1815.005005,4443.222656 1816.097412,4443.954590 
	C1816.097412,4443.954590 1815.999023,4444.000000 1816.409424,4444.879883 
	C1817.912476,4446.490723 1819.005005,4447.222656 1820.097412,4447.954590 
	C1820.097412,4447.954590 1819.999023,4448.000000 1820.409424,4448.879883 
	C1821.912598,4450.491211 1823.005127,4451.223145 1824.097656,4451.954590 
	C1824.097778,4451.954590 1823.999268,4452.000000 1824.409790,4452.879883 
	C1825.912964,4454.491211 1827.005615,4455.222656 1828.098145,4455.954590 
	C1828.098145,4455.954590 1827.999756,4456.000000 1828.410156,4456.879883 
	C1829.913086,4458.490723 1831.005859,4459.222656 1832.098389,4459.954590 
	C1832.098389,4459.954590 1832.000000,4460.000000 1832.410645,4460.879395 
	C1833.913574,4462.490723 1835.005859,4463.223145 1836.098145,4463.955566 
	C1836.098145,4463.955566 1835.998779,4464.000000 1836.409668,4464.879395 
	C1837.912842,4466.491211 1839.005127,4467.223633 1840.097412,4467.956055 
	C1840.097412,4467.956055 1839.999023,4468.000000 1840.409180,4468.879883 
	C1841.911621,4470.492188 1843.003662,4471.225098 1844.095703,4471.957520 
	C1844.095825,4471.957520 1843.997437,4472.000000 1844.407837,4472.879883 
	C1845.910278,4474.493164 1847.002441,4475.226562 1848.094604,4475.959473 
	C1848.094604,4475.959473 1847.999634,4476.000000 1848.408936,4476.880859 
	C1849.909912,4478.495605 1851.001709,4479.229004 1852.093506,4479.962402 
	C1852.093384,4479.962402 1851.999146,4480.000000 1852.437866,4480.902832 
	C1854.030273,4482.526855 1855.183960,4483.248047 1856.337524,4483.969238 
	C1857.584106,4484.384766 1858.556641,4485.148926 1860.022705,4488.004883 
	C1861.549194,4490.834961 1862.553101,4491.602539 1863.802246,4492.049805 
	C1874.122681,4501.952148 1884.442993,4511.854004 1896.542480,4524.107422 
	C1914.523560,4526.834961 1930.724731,4527.299805 1946.928833,4527.449707 
	C1948.548340,4527.464844 1950.185425,4525.561035 1951.814331,4524.546875 
z"/>
<path fill="#FFFFFF" opacity="1.000000" stroke="none" 
	d="
M727.322327,4725.074219 
	C683.941406,4699.008789 640.517517,4673.014648 597.189941,4646.860840 
	C540.743469,4612.789551 484.359589,4578.613770 427.989075,4544.416992 
	C421.345673,4540.386230 414.250397,4536.884766 409.000397,4531.849121 
	C410.052277,4526.937012 413.048767,4527.439453 415.500183,4527.372070 
	C421.492004,4527.207520 427.490295,4527.255371 433.485962,4527.254883 
	C845.211853,4527.249512 1256.937744,4527.219238 1668.663574,4527.308594 
	C1698.581787,4527.314941 1689.819946,4523.834473 1710.217407,4544.148926 
	C1769.220825,4602.913086 1828.004272,4661.897949 1885.717651,4722.315430 
	C1875.904907,4723.971191 1867.248413,4724.226562 1858.591919,4724.227051 
	C1490.145874,4724.246094 1121.699829,4724.237793 753.253784,4724.277832 
	C744.609924,4724.278809 735.966125,4724.797363 727.322327,4725.074219 
z"/>
<path fill="#FEFFFF" opacity="1.000000" stroke="none" 
	d="
M3347.673828,4723.515625 
	C3351.692139,4719.102051 3355.540527,4714.519043 3359.753662,4710.300781 
	C3416.244873,4653.737305 3472.787598,4597.224609 3529.317139,4540.699219 
	C3531.671631,4538.345215 3534.189453,4536.129395 3536.345703,4533.605469 
	C3540.601562,4528.624512 3545.976807,4526.894043 3552.341064,4527.218750 
	C3556.327637,4527.422852 3560.333496,4527.249023 3564.330566,4527.249023 
	C3814.816406,4527.249512 4065.302246,4527.249512 4315.788086,4527.249512 
	C4323.086426,4527.249512 4330.384766,4527.249512 4337.291504,4527.249512 
	C4340.251465,4533.929199 4334.948242,4534.867188 4332.011230,4536.662109 
	C4296.213867,4558.540039 4260.330078,4580.279297 4224.433105,4601.995117 
	C4157.198242,4642.668457 4089.938965,4683.302246 4019.573242,4724.356445 
	C4008.470947,4724.697266 4000.485596,4724.581543 3992.500244,4724.581055 
	C3786.185791,4724.568848 3579.871582,4724.582520 3373.557129,4724.522949 
	C3364.929443,4724.520020 3356.301514,4723.866211 3347.673828,4723.515625 
z"/>
<path fill="#4FB5C6" opacity="1.000000" stroke="none" 
	d="
M132.231750,4317.390137 
	C132.184113,4332.733398 131.877228,4346.345703 131.487015,4361.736816 
	C126.467369,4358.589844 128.093414,4352.279297 128.058884,4346.458496 
	C127.900795,4319.809082 127.975006,4293.158203 127.960014,4266.507812 
	C127.898933,4157.891602 127.894897,4049.275146 127.667252,3940.659424 
	C127.647888,3931.419434 125.684464,3922.195557 125.416046,3912.941406 
	C125.011490,3898.992676 125.055260,3885.017578 125.394783,3871.065674 
	C125.604164,3862.462646 127.271767,3853.884766 127.328873,3845.289307 
	C127.576797,3807.974121 127.532005,3770.656738 127.466270,3733.340088 
	C127.442886,3720.066406 128.311142,3706.776367 124.804039,3693.629883 
	C123.469193,3688.625977 124.244576,3683.030518 124.240280,3677.704590 
	C124.143524,3557.760742 124.078217,3437.816650 123.993988,3317.872803 
	C123.932220,3229.914307 123.923172,3141.955811 123.666908,3053.997803 
	C123.641945,3045.431152 121.481796,3036.881104 121.293411,3028.302002 
	C120.957848,3013.019531 121.176895,2997.716064 121.553185,2982.430908 
	C121.748726,2974.487793 123.285675,2966.568359 123.339264,2958.632568 
	C123.568756,2924.648926 123.638527,2890.662598 123.424332,2856.679199 
	C123.315651,2839.437012 125.089806,2822.092041 120.569595,2805.009766 
	C119.412636,2800.637451 120.240585,2795.727295 120.237442,2791.064209 
	C120.117958,2613.812744 119.963661,2436.561523 119.918030,2259.310059 
	C119.899330,2186.678711 120.047318,2114.047119 120.330170,2041.416260 
	C120.360954,2033.512085 121.897034,2025.621704 122.541771,2017.709229 
	C123.027138,2011.752686 123.468376,2005.771118 123.474792,1999.800293 
	C123.522095,1955.819946 123.701775,1911.837280 123.293457,1867.860474 
	C123.145721,1851.947876 121.161667,1836.059326 120.697739,1820.139771 
	C120.487190,1812.914551 122.036690,1805.648438 122.606651,1798.386719 
	C123.126228,1791.766968 123.729324,1785.128174 123.735046,1778.497437 
	C123.844810,1651.222900 123.844742,1523.948486 123.925591,1396.673950 
	C123.977234,1315.379395 124.073677,1234.084839 124.312012,1152.790649 
	C124.333298,1145.530273 125.546021,1138.272949 126.212891,1131.014893 
	C126.637733,1126.390869 127.445343,1121.768555 127.451706,1117.144653 
	C127.514091,1071.831665 127.669594,1026.516602 127.281212,981.206543 
	C127.156242,966.627258 125.079887,952.071594 124.709938,937.484497 
	C124.509842,929.594604 126.135094,921.669373 126.734062,913.744751 
	C127.234947,907.117737 127.729980,900.468628 127.734856,893.828918 
	C127.831848,761.889954 127.836151,629.950928 127.948608,498.011902 
	C127.955376,490.065155 128.708435,482.119080 130.194153,472.850433 
	C131.512375,478.177856 131.981293,484.828430 131.955627,491.477081 
	C131.068115,721.421936 130.189362,951.366882 129.184189,1181.311279 
	C128.636459,1306.607300 127.771484,1431.901855 127.214340,1557.197754 
	C126.511948,1715.158447 126.047569,1873.120361 125.348709,2031.081055 
	C124.800255,2155.043945 123.718040,2279.005371 123.491402,2402.968506 
	C123.289124,2513.607422 123.709396,2624.249023 124.256828,2734.887451 
	C125.097740,2904.839355 126.454079,3074.788574 127.264412,3244.740479 
	C127.845963,3366.709473 127.653763,3488.682373 128.236130,3610.651367 
	C129.047577,3780.603027 130.298264,3950.552490 131.275085,4120.503418 
	C131.531754,4165.158203 131.439301,4209.814941 131.590302,4254.470703 
	C131.614731,4261.694824 132.074921,4268.918457 132.363617,4276.978027 
	C137.345444,4277.721191 141.100220,4278.616699 144.885468,4278.772461 
	C151.539764,4279.046387 158.212692,4278.877441 164.877823,4278.877441 
	C669.433228,4278.879395 1173.988525,4278.863281 1678.543945,4278.916016 
	C1711.471558,4278.919434 1703.320557,4276.371094 1725.432373,4298.033691 
	C1732.084717,4304.550781 1738.344971,4311.467285 1745.063232,4319.391602 
	C1736.055054,4312.087891 1726.200562,4304.124023 1717.648804,4294.945801 
	C1709.759888,4286.479492 1701.094482,4283.302246 1689.542969,4283.408691 
	C1636.276489,4283.901367 1583.002930,4283.625977 1529.731934,4283.625977 
	C1073.598877,4283.625977 617.465881,4283.625977 161.332825,4283.625977 
	C152.736526,4283.625977 144.140213,4283.626465 134.741043,4283.626465 
	C133.534195,4288.371094 132.005951,4291.998535 131.802841,4295.699219 
	C131.438919,4302.329590 131.872345,4309.002930 132.231750,4317.390137 
z"/>
<path fill="#14D3EA" opacity="1.000000" stroke="none" 
	d="
M3684.000000,107.999130 
	C2698.035156,107.834831 1714.070190,107.670799 730.105225,107.457115 
	C729.571472,107.457001 729.037842,106.707329 728.504211,106.307785 
	C728.769531,105.908531 728.959595,105.412422 729.318420,105.133446 
	C729.818787,104.744377 730.445312,104.258034 731.017883,104.257980 
	C1820.342896,104.150047 2909.667969,104.078911 3998.992920,104.007668 
	C4004.233154,104.007324 4009.473633,104.007629 4014.713867,104.007629 
	C4014.861816,104.807732 4015.009521,105.607834 4015.157471,106.407936 
	C4013.437988,106.930939 4011.746582,107.736931 4009.992432,107.910744 
	C4007.350830,108.172447 4004.665771,107.998634 4001.999023,107.998657 
	C3918.666260,107.999489 3835.333252,107.998886 3752.000488,107.998650 
	C3730.000244,107.998589 3708.000244,107.999008 3684.000000,107.999130 
z"/>
<path fill="#31B2C4" opacity="1.000000" stroke="none" 
	d="
M3345.853027,4723.693359 
	C3356.301514,4723.866211 3364.929443,4724.520020 3373.557129,4724.522949 
	C3579.871582,4724.582520 3786.185791,4724.568848 3992.500244,4724.581055 
	C4000.485596,4724.581543 4008.470947,4724.697266 4018.347900,4725.042969 
	C4017.116211,4726.229980 4014.036133,4727.655273 4010.859863,4727.917969 
	C4005.566895,4728.354980 4000.212402,4728.053223 3994.883789,4728.053223 
	C3789.732910,4728.054688 3584.582275,4728.074219 3379.431396,4728.051270 
	C3057.052246,4728.014648 2734.673096,4727.957031 2412.293945,4727.843750 
	C2405.021729,4727.840820 2397.749756,4727.059082 2389.262451,4725.541016 
	C2396.700195,4724.358887 2405.353516,4724.206543 2414.006592,4724.206055 
	C2697.611816,4724.192871 2981.217285,4724.197266 3264.822510,4724.185059 
	C3272.809814,4724.184570 3280.796875,4724.030273 3290.721680,4723.750000 
	C3309.783203,4723.658203 3326.907715,4723.764648 3345.853027,4723.693359 
z"/>
<path fill="#4FB5C6" opacity="1.000000" stroke="none" 
	d="
M728.731812,4726.051758 
	C735.966125,4724.797363 744.609924,4724.278809 753.253784,4724.277832 
	C1121.699829,4724.237793 1490.145874,4724.246094 1858.591919,4724.227051 
	C1867.248413,4724.226562 1875.904907,4723.971191 1886.438721,4723.392578 
	C1905.428589,4723.362305 1922.541260,4723.773926 1941.417114,4724.028320 
	C1951.805054,4724.105469 1960.429443,4724.539062 1969.054199,4724.543457 
	C2097.896240,4724.616211 2226.738037,4724.631348 2357.343994,4724.794434 
	C2353.228760,4729.729004 2346.276611,4727.508301 2339.831787,4727.525879 
	C2271.840332,4727.713867 2203.848389,4727.682617 2135.856445,4727.701172 
	C1675.247559,4727.825195 1214.638794,4727.952148 754.029907,4728.025879 
	C746.067139,4728.027344 738.104248,4727.375488 728.731812,4726.051758 
z"/>
<path fill="#4FB5C6" opacity="1.000000" stroke="none" 
	d="
M1909.229736,4484.976074 
	C1917.392944,4484.432617 1926.628784,4485.870605 1935.865356,4485.876465 
	C2150.308594,4486.002930 2364.751953,4485.974121 2579.195312,4485.974121 
	C2816.947754,4485.974121 3054.699951,4485.978516 3292.452393,4485.952637 
	C3300.436768,4485.951660 3308.421387,4485.640137 3318.286133,4485.315430 
	C3317.138428,4486.262207 3314.175781,4488.011230 3311.067139,4488.328613 
	C3305.790039,4488.866211 3300.421143,4488.515625 3295.091064,4488.515625 
	C2842.012451,4488.517578 2388.933594,4488.529297 1935.854980,4488.424316 
	C1927.337524,4488.422363 1918.820190,4487.032715 1909.229736,4484.976074 
z"/>
<path fill="#4FB5C6" opacity="1.000000" stroke="none" 
	d="
M1477.561890,4320.164062 
	C1477.046021,4321.250488 1474.781128,4323.089355 1472.381958,4323.285156 
	C1466.420044,4323.772461 1460.396973,4323.543945 1454.398315,4323.543945 
	C1025.093872,4323.550293 595.789490,4323.558105 166.485138,4323.496582 
	C158.549423,4323.495605 150.613831,4322.659668 141.459305,4321.142090 
	C394.813843,4320.103516 649.387207,4320.145996 903.960632,4320.166504 
	C1094.557617,4320.181641 1285.154663,4320.169434 1477.561890,4320.164062 
z"/>
<path fill="#09A2B4" opacity="1.000000" stroke="none" 
	d="
M333.676941,4488.186523 
	C334.702057,4486.440918 336.926239,4484.563965 339.318146,4484.318359 
	C344.592773,4483.776367 349.951996,4484.007324 355.276764,4484.007324 
	C780.715942,4484.005859 1206.155029,4484.005371 1631.594238,4484.076172 
	C1638.848755,4484.077148 1646.102905,4484.945801 1654.500244,4486.562988 
	C1634.326050,4487.804688 1613.008911,4487.968262 1591.691895,4487.969238 
	C1199.965210,4487.984863 808.238586,4487.963867 416.511902,4488.015137 
	C389.325256,4488.018555 362.138702,4488.523438 333.676941,4488.186523 
z"/>
<path fill="#2ECCDE" opacity="1.000000" stroke="none" 
	d="
M3210.045410,4524.216309 
	C3208.949951,4525.545410 3206.075195,4527.501465 3203.018555,4527.847656 
	C3197.755859,4528.443359 3192.379883,4528.047852 3187.051514,4528.047852 
	C2807.399414,4528.048340 2427.747070,4528.056641 2048.094971,4527.986328 
	C2040.842285,4527.985352 2033.589966,4527.061035 2025.118652,4525.429688 
	C2029.889404,4524.200684 2035.878906,4524.031250 2041.868530,4524.031250 
	C2426.646484,4524.019043 2811.424316,4524.021484 3196.202393,4524.025879 
	C3200.196289,4524.025879 3204.190430,4524.086426 3210.045410,4524.216309 
z"/>
<path fill="#09A2B4" opacity="1.000000" stroke="none" 
	d="
M3586.106445,4487.856445 
	C3586.523682,4486.580566 3588.703369,4484.592285 3591.070801,4484.336426 
	C3596.345459,4483.765137 3601.713867,4484.007324 3607.043945,4484.007324 
	C3875.644287,4484.004395 4144.244629,4484.010742 4414.801758,4484.043945 
	C4413.189453,4485.436523 4409.679688,4487.750977 4406.041016,4487.975098 
	C4397.431641,4488.504883 4388.761230,4487.988770 4380.115234,4487.987793 
	C4116.061523,4487.961914 3852.008057,4487.947266 3586.106445,4487.856445 
z"/>
<path fill="#4FB5C6" opacity="1.000000" stroke="none" 
	d="
M1788.833618,4365.059570 
	C1791.994385,4366.599121 1796.073120,4368.950195 1799.298096,4372.158691 
	C1833.728394,4406.413574 1868.030762,4440.797852 1902.334351,4475.179688 
	C1904.203735,4477.053711 1905.770508,4479.228516 1907.904175,4482.532227 
	C1906.150757,4482.323242 1903.662109,4481.154297 1901.836792,4479.323730 
	C1864.297729,4441.684082 1826.833984,4403.969238 1788.833618,4365.059570 
z"/>
<path fill="#20BBCE" opacity="1.000000" stroke="none" 
	d="
M1682.317505,4319.985352 
	C1681.289185,4321.333008 1678.372192,4323.718750 1675.439941,4323.737793 
	C1645.613281,4323.928711 1615.783936,4323.750488 1585.955933,4323.587402 
	C1584.723145,4323.580566 1583.494995,4322.703613 1581.139160,4320.971680 
	C1613.483154,4319.782715 1646.952393,4319.853516 1682.317505,4319.985352 
z"/>
<path fill="#4FB5C6" opacity="1.000000" stroke="none" 
	d="
M1748.856445,4325.155273 
	C1763.486938,4334.098145 1774.935303,4348.123047 1787.709717,4362.454102 
	C1775.231567,4351.239258 1762.314941,4338.791016 1748.856445,4325.155273 
z"/>
<path fill="#2ECCDE" opacity="1.000000" stroke="none" 
	d="
M3333.954102,4523.874023 
	C3333.659180,4525.162109 3331.511475,4527.637207 3329.375977,4527.626953 
	C3312.405273,4527.544434 3295.436523,4526.990234 3277.280029,4525.452637 
	C3294.764160,4524.187012 3313.435547,4524.048828 3333.954102,4523.874023 
z"/>
<path fill="#20BBCE" opacity="1.000000" stroke="none" 
	d="
M1949.981689,4524.396973 
	C1950.185425,4525.561035 1948.548340,4527.464844 1946.928833,4527.449707 
	C1930.724731,4527.299805 1914.523560,4526.834961 1897.146606,4525.291016 
	C1913.364136,4524.164551 1930.756592,4524.205566 1949.981689,4524.396973 
z"/>
<path fill="#2ECCDE" opacity="1.000000" stroke="none" 
	d="
M3354.887695,4504.291504 
	C3355.484863,4505.225586 3354.794678,4506.268066 3352.791748,4507.385742 
	C3352.239014,4506.463867 3352.946045,4505.443848 3354.887695,4504.291504 
z"/>
<path fill="#20BBCE" opacity="1.000000" stroke="none" 
	d="
M1851.689331,4479.046875 
	C1851.001709,4479.229004 1849.909912,4478.495605 1848.428589,4476.833984 
	C1849.121094,4476.647949 1850.203125,4477.389160 1851.689331,4479.046875 
z"/>
<path fill="#2ECCDE" opacity="1.000000" stroke="none" 
	d="
M3383.093750,4476.249023 
	C3383.609131,4477.174316 3382.858887,4478.214355 3380.823242,4479.330566 
	C3380.294922,4478.375977 3381.058594,4477.361816 3383.093750,4476.249023 
z"/>
<path fill="#20BBCE" opacity="1.000000" stroke="none" 
	d="
M1855.852295,4483.067383 
	C1855.183960,4483.248047 1854.030273,4482.526855 1852.455933,4480.856445 
	C1853.145874,4480.660156 1854.256592,4481.412598 1855.852295,4483.067383 
z"/>
<path fill="#2ECCDE" opacity="1.000000" stroke="none" 
	d="
M3378.847900,4480.302734 
	C3379.388184,4481.177246 3378.716553,4482.176758 3376.792236,4483.244141 
	C3376.312500,4482.382812 3377.011230,4481.421875 3378.847900,4480.302734 
z"/>
<path fill="#20BBCE" opacity="1.000000" stroke="none" 
	d="
M1731.695312,4359.038086 
	C1731.005371,4359.222656 1729.912842,4358.490723 1728.432617,4356.831055 
	C1729.127441,4356.642090 1730.209961,4357.381836 1731.695312,4359.038086 
z"/>
<path fill="#20BBCE" opacity="1.000000" stroke="none" 
	d="
M1727.695312,4355.037598 
	C1727.005493,4355.222168 1725.913086,4354.490723 1724.432495,4352.831055 
	C1725.127197,4352.642090 1726.209961,4353.381836 1727.695312,4355.037598 
z"/>
<path fill="#2ECCDE" opacity="1.000000" stroke="none" 
	d="
M3374.770264,4484.334473 
	C3375.339111,4485.208008 3374.686523,4486.210938 3372.768066,4487.286621 
	C3372.280273,4486.439453 3372.962646,4485.473633 3374.770264,4484.334473 
z"/>
<path fill="#20BBCE" opacity="1.000000" stroke="none" 
	d="
M1723.694824,4351.038086 
	C1723.005249,4351.222168 1721.912720,4350.490723 1720.432129,4348.831055 
	C1721.126831,4348.642090 1722.209351,4349.381836 1723.694824,4351.038086 
z"/>
<path fill="#20BBCE" opacity="1.000000" stroke="none" 
	d="
M1863.403442,4491.174805 
	C1862.553101,4491.602539 1861.549194,4490.834961 1860.380371,4488.876953 
	C1861.219849,4488.456055 1862.231201,4489.220215 1863.403442,4491.174805 
z"/>
<path fill="#2ECCDE" opacity="1.000000" stroke="none" 
	d="
M3370.806152,4488.312988 
	C3371.401611,4489.217773 3370.737793,4490.242676 3368.775391,4491.336914 
	C3368.252930,4490.454590 3368.942871,4489.462891 3370.806152,4488.312988 
z"/>
<path fill="#2ECCDE" opacity="1.000000" stroke="none" 
	d="
M3366.844238,4492.302734 
	C3367.426758,4493.210449 3366.750000,4494.238281 3364.780029,4495.341309 
	C3364.254639,4494.448730 3364.953857,4493.450684 3366.844238,4492.302734 
z"/>
<path fill="#2ECCDE" opacity="1.000000" stroke="none" 
	d="
M3362.844727,4496.304199 
	C3363.429443,4497.214355 3362.750000,4498.246582 3360.777832,4499.365234 
	C3360.245850,4498.471680 3360.944580,4497.463379 3362.844727,4496.304199 
z"/>
<path fill="#2ECCDE" opacity="1.000000" stroke="none" 
	d="
M3358.866699,4500.295898 
	C3359.474854,4501.229980 3358.791992,4502.274902 3356.789795,4503.394531 
	C3356.232666,4502.476074 3356.934326,4501.455078 3358.866699,4500.295898 
z"/>
<path fill="#20BBCE" opacity="1.000000" stroke="none" 
	d="
M1847.691650,4475.042969 
	C1847.002441,4475.226562 1845.910278,4474.493164 1844.429810,4472.832031 
	C1845.123901,4472.645020 1846.206299,4473.385742 1847.691650,4475.042969 
z"/>
<path fill="#2ECCDE" opacity="1.000000" stroke="none" 
	d="
M3350.880859,4508.292969 
	C3351.473389,4509.221191 3350.785400,4510.261230 3348.789551,4511.377441 
	C3348.242676,4510.461426 3348.948730,4509.445312 3350.880859,4508.292969 
z"/>
<path fill="#2ECCDE" opacity="1.000000" stroke="none" 
	d="
M3346.876465,4512.291992 
	C3347.468506,4513.218750 3346.782715,4514.255859 3344.789551,4515.363281 
	C3344.246338,4514.448730 3344.952148,4513.437988 3346.876465,4512.291992 
z"/>
<path fill="#2ECCDE" opacity="1.000000" stroke="none" 
	d="
M3342.862793,4516.297363 
	C3343.439453,4517.208496 3342.755859,4518.236816 3340.782959,4519.343262 
	C3340.255127,4518.445312 3340.958252,4517.442871 3342.862793,4516.297363 
z"/>
<path fill="#2ECCDE" opacity="1.000000" stroke="none" 
	d="
M3338.843506,4520.309570 
	C3339.427734,4521.218262 3338.745361,4522.256348 3336.773438,4523.395508 
	C3336.233398,4522.501953 3336.930908,4521.481934 3338.843506,4520.309570 
z"/>
<path fill="#20BBCE" opacity="1.000000" stroke="none" 
	d="
M1719.694824,4347.038086 
	C1719.005127,4347.223145 1717.912598,4346.491211 1716.431885,4344.831055 
	C1717.126709,4344.642090 1718.209473,4345.382324 1719.694824,4347.038086 
z"/>
<path fill="#20BBCE" opacity="1.000000" stroke="none" 
	d="
M1695.661255,4323.014648 
	C1694.970947,4323.222168 1693.846191,4322.490234 1692.238892,4320.850586 
	C1692.913208,4320.653809 1694.070068,4321.364258 1695.661255,4323.014648 
z"/>
<path fill="#20BBCE" opacity="1.000000" stroke="none" 
	d="
M1715.694702,4343.039062 
	C1715.005249,4343.223145 1713.912720,4342.490723 1712.431885,4340.830566 
	C1713.126221,4340.642578 1714.208862,4341.382324 1715.694702,4343.039062 
z"/>
<path fill="#20BBCE" opacity="1.000000" stroke="none" 
	d="
M1711.695068,4339.039062 
	C1711.005615,4339.223145 1709.913208,4338.491211 1708.432129,4336.830566 
	C1709.126343,4336.642578 1710.209229,4337.382324 1711.695068,4339.039062 
z"/>
<path fill="#20BBCE" opacity="1.000000" stroke="none" 
	d="
M1707.695068,4335.039551 
	C1707.005493,4335.223633 1705.912964,4334.491699 1704.432007,4332.831055 
	C1705.126465,4332.642578 1706.209229,4333.383301 1707.695068,4335.039551 
z"/>
<path fill="#20BBCE" opacity="1.000000" stroke="none" 
	d="
M1703.695068,4331.039062 
	C1703.005493,4331.223633 1701.913086,4330.491211 1700.432373,4328.831055 
	C1701.126709,4328.643066 1702.209473,4329.382812 1703.695068,4331.039062 
z"/>
<path fill="#20BBCE" opacity="1.000000" stroke="none" 
	d="
M1699.694702,4327.039062 
	C1699.004761,4327.223633 1697.912231,4326.492188 1696.432129,4324.832031 
	C1697.126953,4324.643066 1698.209473,4325.382812 1699.694702,4327.039062 
z"/>
<path fill="#20BBCE" opacity="1.000000" stroke="none" 
	d="
M1791.694824,4419.038086 
	C1791.005249,4419.222656 1789.912598,4418.490723 1788.432129,4416.831055 
	C1789.126831,4416.642090 1790.209351,4417.381836 1791.694824,4419.038086 
z"/>
<path fill="#20BBCE" opacity="1.000000" stroke="none" 
	d="
M1735.695312,4363.038086 
	C1735.005493,4363.222168 1733.913086,4362.490723 1732.432617,4360.831055 
	C1733.127319,4360.642090 1734.209961,4361.381836 1735.695312,4363.038086 
z"/>
<path fill="#20BBCE" opacity="1.000000" stroke="none" 
	d="
M1743.694824,4371.039062 
	C1743.005005,4371.223145 1741.912476,4370.491211 1740.432129,4368.831055 
	C1741.126831,4368.642578 1742.209595,4369.382324 1743.694824,4371.039062 
z"/>
<path fill="#20BBCE" opacity="1.000000" stroke="none" 
	d="
M1747.694824,4375.039062 
	C1747.005127,4375.223145 1745.912598,4374.491211 1744.432007,4372.831055 
	C1745.126587,4372.642578 1746.209351,4373.382812 1747.694824,4375.039062 
z"/>
<path fill="#20BBCE" opacity="1.000000" stroke="none" 
	d="
M1751.694946,4379.039062 
	C1751.005371,4379.223145 1749.912842,4378.491211 1748.432129,4376.831055 
	C1749.126709,4376.642578 1750.209351,4377.382324 1751.694946,4379.039062 
z"/>
<path fill="#20BBCE" opacity="1.000000" stroke="none" 
	d="
M1755.695312,4383.038086 
	C1755.005737,4383.222656 1753.913086,4382.491211 1752.432129,4380.831055 
	C1753.126709,4380.642090 1754.209351,4381.382324 1755.695312,4383.038086 
z"/>
<path fill="#20BBCE" opacity="1.000000" stroke="none" 
	d="
M1759.695557,4387.038574 
	C1759.006348,4387.222656 1757.913696,4386.490723 1756.432617,4384.830566 
	C1757.126709,4384.642578 1758.209351,4385.382324 1759.695557,4387.038574 
z"/>
<path fill="#20BBCE" opacity="1.000000" stroke="none" 
	d="
M1763.695312,4391.038574 
	C1763.006226,4391.222168 1761.913574,4390.490234 1760.432373,4388.829590 
	C1761.126587,4388.642090 1762.209229,4389.382324 1763.695312,4391.038574 
z"/>
<path fill="#20BBCE" opacity="1.000000" stroke="none" 
	d="
M1767.695068,4395.039062 
	C1767.006104,4395.223145 1765.913574,4394.490723 1764.432617,4392.830078 
	C1765.126587,4392.641602 1766.208984,4393.382324 1767.695068,4395.039062 
z"/>
<path fill="#20BBCE" opacity="1.000000" stroke="none" 
	d="
M1771.695312,4399.039062 
	C1771.005859,4399.223145 1769.913330,4398.490723 1768.432373,4396.830078 
	C1769.126587,4396.642090 1770.209473,4397.382324 1771.695312,4399.039062 
z"/>
<path fill="#20BBCE" opacity="1.000000" stroke="none" 
	d="
M1775.694580,4403.039062 
	C1775.005249,4403.223145 1773.912720,4402.491211 1772.431885,4400.830566 
	C1773.126221,4400.642578 1774.208862,4401.382324 1775.694580,4403.039062 
z"/>
<path fill="#20BBCE" opacity="1.000000" stroke="none" 
	d="
M1779.694824,4407.039062 
	C1779.005127,4407.223633 1777.912720,4406.491211 1776.431885,4404.831055 
	C1777.126221,4404.642578 1778.209106,4405.382324 1779.694824,4407.039062 
z"/>
<path fill="#20BBCE" opacity="1.000000" stroke="none" 
	d="
M1783.694580,4411.039062 
	C1783.005005,4411.223145 1781.912476,4410.491211 1780.431641,4408.830566 
	C1781.126343,4408.642578 1782.208984,4409.382324 1783.694580,4411.039062 
z"/>
<path fill="#20BBCE" opacity="1.000000" stroke="none" 
	d="
M1787.694824,4415.038574 
	C1787.005005,4415.222656 1785.912476,4414.491211 1784.431885,4412.831055 
	C1785.126587,4412.643066 1786.209351,4413.382812 1787.694824,4415.038574 
z"/>
<path fill="#20BBCE" opacity="1.000000" stroke="none" 
	d="
M1739.695068,4367.038086 
	C1739.005127,4367.223145 1737.912476,4366.491211 1736.432129,4364.831055 
	C1737.127075,4364.642090 1738.209717,4365.381836 1739.695068,4367.038086 
z"/>
<path fill="#20BBCE" opacity="1.000000" stroke="none" 
	d="
M1795.695190,4423.037109 
	C1795.005249,4423.222168 1793.912598,4422.490723 1792.432251,4420.831055 
	C1793.127197,4420.642090 1794.209839,4421.381348 1795.695190,4423.037109 
z"/>
<path fill="#20BBCE" opacity="1.000000" stroke="none" 
	d="
M1799.695312,4427.037109 
	C1799.005493,4427.222168 1797.912964,4426.490723 1796.432739,4424.831055 
	C1797.127563,4424.642090 1798.210083,4425.381348 1799.695312,4427.037109 
z"/>
<path fill="#20BBCE" opacity="1.000000" stroke="none" 
	d="
M1803.695557,4431.037109 
	C1803.005615,4431.222168 1801.913208,4430.490723 1800.432861,4428.831055 
	C1801.127686,4428.642090 1802.210327,4429.381348 1803.695557,4431.037109 
z"/>
<path fill="#20BBCE" opacity="1.000000" stroke="none" 
	d="
M1807.695312,4435.037598 
	C1807.005371,4435.222656 1805.912964,4434.490723 1804.432739,4432.831055 
	C1805.127563,4432.642090 1806.210205,4433.381836 1807.695312,4435.037598 
z"/>
<path fill="#20BBCE" opacity="1.000000" stroke="none" 
	d="
M1811.695312,4439.037598 
	C1811.005127,4439.222656 1809.912720,4438.490723 1808.432617,4436.831055 
	C1809.127563,4436.641602 1810.210205,4437.381348 1811.695312,4439.037598 
z"/>
<path fill="#20BBCE" opacity="1.000000" stroke="none" 
	d="
M1815.695068,4443.038086 
	C1815.005005,4443.222656 1813.912720,4442.491211 1812.432495,4440.831055 
	C1813.127319,4440.642090 1814.209961,4441.381836 1815.695068,4443.038086 
z"/>
<path fill="#20BBCE" opacity="1.000000" stroke="none" 
	d="
M1819.695068,4447.038086 
	C1819.005005,4447.222656 1817.912476,4446.490723 1816.432129,4444.831055 
	C1817.127197,4444.642578 1818.209961,4445.381836 1819.695068,4447.038086 
z"/>
<path fill="#20BBCE" opacity="1.000000" stroke="none" 
	d="
M1823.695068,4451.038574 
	C1823.005127,4451.223145 1821.912598,4450.491211 1820.432129,4448.831055 
	C1821.126953,4448.643066 1822.209717,4449.382812 1823.695068,4451.038574 
z"/>
<path fill="#20BBCE" opacity="1.000000" stroke="none" 
	d="
M1827.695190,4455.038086 
	C1827.005615,4455.222656 1825.912964,4454.491211 1824.432251,4452.831055 
	C1825.126953,4452.642090 1826.209595,4453.382324 1827.695190,4455.038086 
z"/>
<path fill="#20BBCE" opacity="1.000000" stroke="none" 
	d="
M1831.695312,4459.038574 
	C1831.005859,4459.222656 1829.913086,4458.490723 1828.432373,4456.830566 
	C1829.126953,4456.642090 1830.209595,4457.382324 1831.695312,4459.038574 
z"/>
<path fill="#20BBCE" opacity="1.000000" stroke="none" 
	d="
M1835.695312,4463.039062 
	C1835.005859,4463.223145 1833.913574,4462.490723 1832.432617,4460.830566 
	C1833.126709,4460.642578 1834.209595,4461.382812 1835.695312,4463.039062 
z"/>
<path fill="#20BBCE" opacity="1.000000" stroke="none" 
	d="
M1839.694580,4467.040039 
	C1839.005127,4467.223633 1837.912842,4466.491211 1836.432007,4464.830566 
	C1837.126343,4464.643066 1838.209106,4465.383301 1839.694580,4467.040039 
z"/>
<path fill="#20BBCE" opacity="1.000000" stroke="none" 
	d="
M1843.692871,4471.041016 
	C1843.003662,4471.225098 1841.911621,4470.492188 1840.431152,4468.831055 
	C1841.125244,4468.643555 1842.207642,4469.384277 1843.692871,4471.041016 
z"/>
</svg>